<svg xmlns="http://www.w3.org/2000/svg" width="1200" height="320" viewBox="0 0 1200 320" role="img" aria-labelledby="title desc">
  <title id="title">Jeong Kitae</title>
  <desc id="desc">Systems, security, and performance engineer profile banner</desc>
  <defs>
    <linearGradient id="background" x1="0" y1="0" x2="1" y2="1">
      <stop offset="0" stop-color="#09090b" />
      <stop offset="0.55" stop-color="#111827" />
      <stop offset="1" stop-color="#0f172a" />
    </linearGradient>
    <linearGradient id="accent" x1="0" y1="0" x2="1" y2="0">
      <stop offset="0" stop-color="#22d3ee" />
      <stop offset="0.55" stop-color="#818cf8" />
      <stop offset="1" stop-color="#c084fc" />
    </linearGradient>
    <radialGradient id="glow" cx="50%" cy="50%" r="50%">
      <stop offset="0" stop-color="#22d3ee" stop-opacity="0.2" />
      <stop offset="1" stop-color="#22d3ee" stop-opacity="0" />
    </radialGradient>
    <pattern id="grid" width="32" height="32" patternUnits="userSpaceOnUse">
      <path d="M32 0H0V32" fill="none" stroke="#94a3b8" stroke-opacity="0.08" />
    </pattern>
    <filter id="shadow" x="-20%" y="-20%" width="140%" height="140%">
      <feDropShadow dx="0" dy="8" stdDeviation="16" flood-color="#000000" flood-opacity="0.35" />
    </filter>
  </defs>
  <rect width="1200" height="320" rx="28" fill="url(#background)" />
  <rect width="1200" height="320" rx="28" fill="url(#grid)" />
  <circle cx="1060" cy="30" r="260" fill="url(#glow)" />
  <circle cx="1135" cy="265" r="150" fill="none" stroke="#818cf8" stroke-opacity="0.16" stroke-width="2" />
  <circle cx="1135" cy="265" r="108" fill="none" stroke="#22d3ee" stroke-opacity="0.2" stroke-width="2" />
  <path d="M860 250C930 190 1002 194 1058 136C1094 99 1129 74 1200 67" fill="none" stroke="url(#accent)" stroke-opacity="0.35" stroke-width="2" />
  <g filter="url(#shadow)">
    <rect x="72" y="54" width="142" height="32" rx="16" fill="#ffffff" fill-opacity="0.08" stroke="#ffffff" stroke-opacity="0.14" />
    <circle cx="94" cy="70" r="5" fill="#22d3ee" />
    <text x="108" y="75" fill="#cbd5e1" font-family="ui-monospace, SFMono-Regular, Menlo, Consolas, monospace" font-size="13" letter-spacing="1">MYTRASHCAN</text>
    <text x="70" y="158" fill="#f8fafc" font-family="Inter, ui-sans-serif, system-ui, -apple-system, BlinkMacSystemFont, Segoe UI, sans-serif" font-size="64" font-weight="750" letter-spacing="-2">JEONG KITAE</text>
    <rect x="72" y="180" width="570" height="5" rx="2.5" fill="url(#accent)" />
    <text x="72" y="224" fill="#cbd5e1" font-family="Inter, ui-sans-serif, system-ui, -apple-system, BlinkMacSystemFont, Segoe UI, sans-serif" font-size="22" letter-spacing="4">SYSTEMS · SECURITY · PERFORMANCE</text>
    <text x="72" y="269" fill="#94a3b8" font-family="ui-monospace, SFMono-Regular, Menlo, Consolas, monospace" font-size="16">$ building dependable software below the abstraction layer</text>
  </g>
  <circle cx="1115" cy="70" r="5" fill="#22d3ee" />
  <circle cx="1140" cy="70" r="5" fill="#818cf8" />
  <circle cx="1165" cy="70" r="5" fill="#c084fc" />
</svg>
